HIERARCHY
ROOT SpineBase
{
  OFFSET 0.000000 0.000000 0.000000
  CHANNELS 6 Xposition Yposition Zposition Zrotation Xrotation Yrotation
  JOINT SpineMid
  {
    OFFSET 0.000000 27.329350 0.000000
    CHANNELS 3 Zrotation Xrotation Yrotation
    JOINT SpineShoulder
    {
      OFFSET -0.023611 20.298936 -0.569993
      CHANNELS 3 Zrotation Xrotation Yrotation
      JOINT Neck
      {
        OFFSET -0.030606 6.719659 -0.460497
        CHANNELS 3 Zrotation Xrotation Yrotation
        JOINT Head
        {
          OFFSET -2.360898 12.222054 -0.148610
          CHANNELS 3 Zrotation Xrotation Yrotation
          End Site
          {
            OFFSET 0 0 0
          }
        }
      }
      JOINT ShoulderLeft
      {
        OFFSET -11.784551 -6.516760 4.363421
        CHANNELS 3 Zrotation Xrotation Yrotation
        JOINT ElbowLeft
        {
          OFFSET -3.005683 -18.867159 4.935302
          CHANNELS 3 Zrotation Xrotation Yrotation
          JOINT WristLeft
          {
            OFFSET 0.322139 -19.898364 1.814324
            CHANNELS 3 Zrotation Xrotation Yrotation
            JOINT HandLeft
            {
              OFFSET -0.685223 -12.898645 1.574818
              CHANNELS 3 Zrotation Xrotation Yrotation
              JOINT HandTipLeft
              {
                OFFSET 0.697872 -6.013644 -3.087086
                CHANNELS 3 Zrotation Xrotation Yrotation
                End Site
                {
                  OFFSET 0 0 0
                }
              }
              JOINT ThumbLeft
              {
                OFFSET 1.425096 -1.441409 -5.534634
                CHANNELS 3 Zrotation Xrotation Yrotation
                End Site
                {
                  OFFSET 0 0 0
                }
              }
            }
          }
        }
      }
      JOINT ShoulderRight
      {
        OFFSET 8.993249 -4.682078 -11.605076
        CHANNELS 3 Zrotation Xrotation Yrotation
        JOINT ElbowRight
        {
          OFFSET 6.156726 -18.382416 -4.783376
          CHANNELS 3 Zrotation Xrotation Yrotation
          JOINT WristRight
          {
            OFFSET -17.611689 -5.176139 -9.595975
            CHANNELS 3 Zrotation Xrotation Yrotation
            JOINT HandRight
            {
              OFFSET -4.300452 -0.836562 -1.434172
              CHANNELS 3 Zrotation Xrotation Yrotation
              JOINT HandTipRight
              {
                OFFSET -4.540239 -1.536900 -0.620816
                CHANNELS 3 Zrotation Xrotation Yrotation
                End Site
                {
                  OFFSET 0 0 0
                }
              }
              JOINT ThumbRight
              {
                OFFSET -2.366670 0.504671 -0.299318
                CHANNELS 3 Zrotation Xrotation Yrotation
                End Site
                {
                  OFFSET 0 0 0
                }
              }
            }
          }
        }
      }
    }
  }
  JOINT HipLeft
  {
    OFFSET -5.161664 0.393255 0.479717
    CHANNELS 3 Zrotation Xrotation Yrotation
    JOINT KneeLeft
    {
      OFFSET -1.133984 -20.577466 9.461660
      CHANNELS 3 Zrotation Xrotation Yrotation
      JOINT AnkleLeft
      {
        OFFSET 11.534300 -40.104846 9.799036
        CHANNELS 3 Zrotation Xrotation Yrotation
        JOINT FootLeft
        {
          OFFSET -2.234366 -9.247817 -1.193439
          CHANNELS 3 Zrotation Xrotation Yrotation
          End Site
          {
            OFFSET 0 0 0
          }
        }
      }
    }
  }
  JOINT HipRight
  {
    OFFSET 4.734302 0.686465 -6.789213
    CHANNELS 3 Zrotation Xrotation Yrotation
    JOINT KneeRight
    {
      OFFSET 5.843572 -27.340545 4.553249
      CHANNELS 3 Zrotation Xrotation Yrotation
      JOINT AnkleRight
      {
        OFFSET 6.650891 -35.638860 10.630384
        CHANNELS 3 Zrotation Xrotation Yrotation
        JOINT FootRight
        {
          OFFSET -5.085713 -3.290180 -9.198889
          CHANNELS 3 Zrotation Xrotation Yrotation
          End Site
          {
            OFFSET 0 0 0
          }
        }
      }
    }
  }
}
MOTION
Frames: 9
Frame Time: 0.033333
31.176840 67.987318 368.645450 4.270951 -6.267934 27.522935 -0.971177 -0.335581 -27.134020 -0.320154 -0.492292 0.128162 13.345288 -3.616543 -2.428072 0.000000 0.000000 0.000000 4.373287 8.136941 0.871729 -5.464922 -1.511326 -1.699912 9.196569 16.333353 -1.351967 -19.035500 -38.789353 -5.680285 0.000000 0.000000 0.000000 0.000000 0.000000 0.000000 2.712003 -5.338880 -6.031494 54.163455 -20.044480 -6.388272 14.275875 14.743418 10.005175 -19.299259 6.104892 -52.566676 0.000000 0.000000 0.000000 0.000000 0.000000 0.000000 9.617829 9.970303 -25.407749 -15.954387 -7.500378 -7.092866 -2.188015 19.640471 0.696947 0.000000 0.000000 0.000000 0.579956 11.070097 -26.701446 -2.463455 -2.225891 -1.438778 4.500269 -3.295753 -1.532318 0.000000 0.000000 0.000000
31.672066 67.992198 368.773861 4.410136 -6.832471 27.393291 -0.774320 -0.282527 -26.976335 -0.275125 -0.451246 0.139836 12.598690 -3.420976 -2.525302 0.000000 0.000000 0.000000 4.518903 8.632801 0.862951 -5.782139 -1.399930 -1.794326 8.272940 16.282949 -1.331354 -18.414442 -38.502088 -5.345601 0.000000 0.000000 0.000000 0.000000 0.000000 0.000000 1.906321 -5.508760 -6.101309 58.061815 -21.212523 -5.160734 14.937086 14.193020 7.103863 -17.495726 5.945489 -43.509018 0.000000 0.000000 0.000000 0.000000 0.000000 0.000000 9.293144 11.352278 -25.748891 -15.199455 -8.341017 -6.854700 -2.741450 19.593010 0.987680 0.000000 0.000000 0.000000 0.342099 12.316713 -26.511589 -1.928129 -2.597927 -1.440763 3.478600 -0.123638 -3.410950 0.000000 0.000000 0.000000
32.315193 67.974239 368.720097 4.773293 -7.225616 27.583453 -0.739070 -0.239829 -27.117102 -0.254565 -0.417987 0.155022 11.449430 -2.829919 -2.562213 0.000000 0.000000 0.000000 4.043171 8.686408 0.880319 -5.611258 -0.951890 -1.797239 7.595107 15.901450 -1.264565 -20.327284 -38.706610 -5.221059 0.000000 0.000000 0.000000 0.000000 0.000000 0.000000 1.196466 -5.809965 -6.223833 61.251257 -21.787098 -3.642168 15.345692 11.830304 2.182082 -14.621075 8.063102 -29.576332 0.000000 0.000000 0.000000 0.000000 0.000000 0.000000 8.128170 12.530518 -26.449655 -13.756588 -8.816653 -6.221736 -4.481792 18.456209 1.689072 0.000000 0.000000 0.000000 -0.557634 13.078733 -26.679708 -1.341069 -2.406794 -1.309710 4.738556 -2.977137 -2.013545 0.000000 0.000000 0.000000
32.852870 67.993785 368.695885 5.031704 -7.557939 27.747119 -0.663299 -0.214363 -27.244404 -0.236540 -0.357816 0.166425 10.101890 -2.675194 -2.579663 0.000000 0.000000 0.000000 3.853596 8.629152 0.938940 -5.618858 -0.483582 -1.858556 6.796467 16.151052 -1.295839 -26.077969 -45.450070 -7.625610 0.000000 0.000000 0.000000 0.000000 0.000000 0.000000 0.690123 -6.279648 -6.403399 64.212624 -22.030927 -1.875875 13.337953 9.195334 -3.166220 -11.934377 11.790279 -15.843594 0.000000 0.000000 0.000000 0.000000 0.000000 0.000000 7.017566 13.643372 -27.099991 -12.175936 -9.236012 -5.507442 -6.647660 17.363291 2.388538 0.000000 0.000000 0.000000 -1.283637 13.403145 -26.851628 -1.084728 -1.894312 -1.180229 5.128255 -3.207602 -1.992691 0.000000 0.000000 0.000000
33.244681 68.084134 368.710870 5.221440 -7.885336 28.033062 -0.626049 -0.179775 -27.498268 -0.198648 -0.343228 0.174377 8.504311 -2.606324 -2.597442 0.000000 0.000000 0.000000 3.684442 8.662467 0.975854 -5.598287 -0.116751 -1.901038 6.181050 16.630810 -1.357492 -28.638315 -46.743319 -8.341772 0.000000 0.000000 0.000000 0.000000 0.000000 0.000000 0.454632 -6.592908 -6.601433 66.355192 -21.789799 0.066120 11.367099 7.473189 -6.844244 -9.654553 15.702642 -4.099279 0.000000 0.000000 0.000000 0.000000 0.000000 0.000000 6.173369 14.738199 -27.830356 -10.809607 -9.562742 -4.844494 -8.114715 15.962885 2.853410 0.000000 0.000000 0.000000 -1.672121 13.825938 -27.123858 -0.890623 -1.661678 -1.116089 5.397217 -3.377217 -1.945786 0.000000 0.000000 0.000000
33.492161 68.226673 368.758036 5.300920 -8.045085 28.496498 -0.552139 -0.139069 -27.950607 -0.162242 -0.269037 0.176963 6.817687 -3.268071 -2.606360 0.000000 0.000000 0.000000 3.384296 8.417822 1.021315 -5.464581 0.178893 -1.902306 5.600810 17.055003 -1.396616 -34.252948 -48.407064 -9.835143 0.000000 0.000000 0.000000 0.000000 0.000000 0.000000 0.263941 -7.146229 -6.777341 68.301805 -21.448402 1.852284 8.676498 7.350523 -8.612146 -7.221145 16.483815 -1.226575 0.000000 0.000000 0.000000 0.000000 0.000000 0.000000 5.705560 15.584059 -28.657457 -9.834287 -9.810508 -4.324499 -9.152316 14.408406 3.161757 0.000000 0.000000 0.000000 -1.715807 14.517476 -27.530279 -0.446464 -2.153712 -1.134564 5.337279 -3.319153 -1.908502 0.000000 0.000000 0.000000
33.601539 68.385008 368.825419 5.269612 -8.243326 29.010076 -0.470736 -0.183489 -28.461895 -0.090650 -0.244690 0.178017 5.431548 -3.218427 -2.603147 0.000000 0.000000 0.000000 3.112779 8.611291 0.986466 -5.403173 0.075791 -1.870257 4.893466 16.570413 -1.302479 -45.711146 -49.195534 -11.920150 0.000000 0.000000 0.000000 0.000000 0.000000 0.000000 0.138988 -7.458875 -6.943858 69.419213 -21.015783 3.014005 5.505336 6.506539 -11.627494 -5.205687 18.024258 3.263811 0.000000 0.000000 0.000000 0.000000 0.000000 0.000000 5.728121 16.409590 -29.493897 -9.328841 -10.191829 -4.038835 -9.364275 12.580251 3.351456 0.000000 0.000000 0.000000 -1.622093 14.373224 -28.103793 -0.701484 -1.615453 -1.094701 5.586656 -3.568229 -1.717270 0.000000 0.000000 0.000000
33.692828 68.577442 368.860194 5.411310 -8.195663 29.454930 -0.364239 -0.115585 -28.901751 -0.084681 -0.184976 0.184753 3.676436 -3.434174 -2.528322 0.000000 0.000000 0.000000 2.840340 9.006068 0.861324 -5.438230 -0.684282 -1.779744 3.954123 15.247134 -1.110547 -34.601557 -49.368641 -9.773710 0.000000 0.000000 0.000000 0.000000 0.000000 0.000000 0.092690 -7.958550 -7.067239 69.886480 -20.666156 3.751333 2.959469 6.156000 -13.692722 -2.735782 18.246496 4.102366 0.000000 0.000000 0.000000 0.000000 0.000000 0.000000 5.369918 16.922664 -30.167252 -8.863504 -10.221309 -3.705875 -8.899795 10.954329 3.297066 0.000000 0.000000 0.000000 -1.696762 14.791628 -28.497863 -0.434239 -2.132652 -1.155927 5.478638 -3.415458 -1.483905 0.000000 0.000000 0.000000
33.649539 68.794079 368.891398 5.533003 -7.977415 29.966111 -0.237594 -0.037002 -29.420104 -0.067514 -0.110513 0.190889 1.700156 -3.748718 -2.431307 0.000000 0.000000 0.000000 2.571451 9.287680 0.733201 -4.941662 -0.842914 -1.627923 3.805292 17.421253 -1.432137 -37.544505 -53.246498 -13.174784 0.000000 0.000000 0.000000 0.000000 0.000000 0.000000 0.033611 -8.632361 -7.168402 69.440126 -20.339246 3.569848 1.743368 6.485678 -13.896456 -1.835835 16.534425 0.318779 0.000000 0.000000 0.000000 0.000000 0.000000 0.000000 5.154167 17.025208 -30.785570 -8.744093 -10.033730 -3.513040 -7.727183 10.270540 2.983933 0.000000 0.000000 0.000000 -2.052209 14.095889 -29.089965 -0.598154 -0.969987 -0.930818 5.505964 -3.962623 -1.194092 0.000000 0.000000 0.000000
